{
	"asset":{
		"generator":"Khronos glTF Blender I/O v4.4.56",
		"version":"2.0"
	},
	"scene":0,
	"scenes":[
		{
			"name":"Scene",
			"nodes":[
				41
			]
		}
	],
	"nodes":[
		{
			"name":"Chicken"
		},
		{
			"name":"Taxi"
		},
		{
			"mesh":0,
			"name":"pCube51_lambert3_0"
		},
		{
			"children":[
				2
			],
			"name":"pCube51",
			"scale":[
				5.853905200958252,
				5.143984794616699,
				12.339849472045898
			],
			"translation":[
				0,
				3.1736106872558594,
				-1.1693298816680908
			]
		},
		{
			"mesh":1,
			"name":"pCube52_blinn16_0"
		},
		{
			"children":[
				4
			],
			"name":"pCube52",
			"scale":[
				5.853905200958252,
				3.989485502243042,
				4.662766456604004
			],
			"translation":[
				0,
				2.7194790840148926,
				7.666967391967773
			]
		},
		{
			"mesh":2,
			"name":"pCube53_blinn17_0"
		},
		{
			"children":[
				6
			],
			"name":"pCube53",
			"scale":[
				5.96431303024292,
				1.559148907661438,
				2.4983372688293457
			],
			"translation":[
				0,
				3.4439806938171387,
				8.807096481323242
			]
		},
		{
			"mesh":3,
			"name":"pCube54_blinn15_0"
		},
		{
			"children":[
				8
			],
			"name":"pCube54",
			"scale":[
				1.8793232440948486,
				1.1925415992736816,
				1.7370741367340088
			],
			"translation":[
				2.2238125801086426,
				0.8286581635475159,
				7.1856794357299805
			]
		},
		{
			"mesh":4,
			"name":"pCube55_blinn14_0"
		},
		{
			"children":[
				10
			],
			"name":"pCube55",
			"scale":[
				1.8793232440948486,
				0.47247058153152466,
				0.6882078051567078
			],
			"translation":[
				2.2919185161590576,
				0.8286581635475159,
				7.1856794357299805
			]
		},
		{
			"mesh":5,
			"name":"pCube56_blinn15_0"
		},
		{
			"children":[
				12
			],
			"name":"pCube56",
			"scale":[
				1.8793232440948486,
				1.1925415992736816,
				1.7370741367340088
			],
			"translation":[
				2.2238125801086426,
				0.8286581635475159,
				2.093034505844116
			]
		},
		{
			"mesh":6,
			"name":"pCube57_blinn14_0"
		},
		{
			"children":[
				14
			],
			"name":"pCube57",
			"scale":[
				1.8793232440948486,
				0.47247058153152466,
				0.6882078051567078
			],
			"translation":[
				2.2919185161590576,
				0.8286581635475159,
				2.093034505844116
			]
		},
		{
			"mesh":7,
			"name":"pCube58_blinn15_0"
		},
		{
			"children":[
				16
			],
			"name":"pCube58",
			"scale":[
				1.8793232440948486,
				1.1925415992736816,
				1.7370741367340088
			],
			"translation":[
				2.2238125801086426,
				0.8286581635475159,
				7.1856794357299805
			]
		},
		{
			"mesh":8,
			"name":"pCube59_blinn15_0"
		},
		{
			"children":[
				18
			],
			"name":"pCube59",
			"scale":[
				1.8793232440948486,
				1.1925415992736816,
				1.7370741367340088
			],
			"translation":[
				2.2238125801086426,
				0.8286581635475159,
				-5.12919282913208
			]
		},
		{
			"mesh":9,
			"name":"pCube60_blinn14_0"
		},
		{
			"children":[
				20
			],
			"name":"pCube60",
			"scale":[
				1.8793232440948486,
				0.47247058153152466,
				0.6882078051567078
			],
			"translation":[
				2.2919185161590576,
				0.8286581635475159,
				-5.12919282913208
			]
		},
		{
			"mesh":10,
			"name":"pCube61_blinn15_0"
		},
		{
			"children":[
				22
			],
			"name":"pCube61",
			"scale":[
				1.8793232440948486,
				1.1925415992736816,
				1.7370741367340088
			],
			"translation":[
				-2.2267658710479736,
				0.8286581635475159,
				-5.12919282913208
			]
		},
		{
			"mesh":11,
			"name":"pCube62_blinn14_0"
		},
		{
			"children":[
				24
			],
			"name":"pCube62",
			"scale":[
				1.8793232440948486,
				0.47247058153152466,
				0.6882078051567078
			],
			"translation":[
				-2.25016713142395,
				0.8286581635475159,
				-5.12919282913208
			]
		},
		{
			"mesh":12,
			"name":"pCube63_blinn15_0",
			"translation":[
				0,
				0,
				-0.1896742582321167
			]
		},
		{
			"children":[
				26
			],
			"name":"pCube63",
			"scale":[
				1.8793232440948486,
				1.1925415992736816,
				1.7370741367340088
			],
			"translation":[
				-2.2267658710479736,
				0.8286581635475159,
				2.404141902923584
			]
		},
		{
			"mesh":13,
			"name":"pCube64_blinn14_0",
			"translation":[
				0,
				0,
				-0.5022971630096436
			]
		},
		{
			"children":[
				28
			],
			"name":"pCube64",
			"scale":[
				1.8793232440948486,
				0.47247058153152466,
				0.6882078051567078
			],
			"translation":[
				-2.25016713142395,
				0.8286581635475159,
				2.404141902923584
			]
		},
		{
			"mesh":14,
			"name":"pCube65_blinn15_0"
		},
		{
			"children":[
				30
			],
			"name":"pCube65",
			"scale":[
				1.8793232440948486,
				1.1925415992736816,
				1.7370741367340088
			],
			"translation":[
				-2.2267658710479736,
				0.8286581635475159,
				7.039292812347412
			]
		},
		{
			"mesh":15,
			"name":"pCube66_blinn14_0"
		},
		{
			"children":[
				32
			],
			"name":"pCube66",
			"scale":[
				1.8793232440948486,
				0.47247058153152466,
				0.6882078051567078
			],
			"translation":[
				-2.25016713142395,
				0.8286581635475159,
				7.039292812347412
			]
		},
		{
			"mesh":16,
			"name":"pCube67_lambert3_0"
		},
		{
			"children":[
				34
			],
			"name":"pCube67",
			"scale":[
				4.797762870788574,
				2.599658966064453,
				2.1704277992248535
			],
			"translation":[
				0,
				4.561270713806152,
				6.445641040802002
			]
		},
		{
			"mesh":17,
			"name":"pCube68_lambert3_0",
			"scale":[
				0.9700000286102295,
				1,
				1
			]
		},
		{
			"children":[
				36
			],
			"name":"pCube68",
			"scale":[
				4.797762870788574,
				1.7091431617736816,
				2.1704277992248535
			],
			"translation":[
				0,
				4.561270713806152,
				7.0610809326171875
			]
		},
		{
			"children":[
				3,
				5,
				7,
				9,
				11,
				13,
				15,
				17,
				19,
				21,
				23,
				25,
				27,
				29,
				31,
				33,
				35,
				37
			],
			"name":"Truck",
			"translation":[
				-3.9848785400390625,
				0,
				0
			]
		},
		{
			"children":[
				0,
				1,
				38
			],
			"name":"RootNode"
		},
		{
			"children":[
				39
			],
			"name":"ba148387592c446490a69e00da18b0ea.fbx",
			"rotation":[
				0.70710688829422,
				0,
				0,
				0.7071066498756409
			]
		},
		{
			"children":[
				40
			],
			"name":"Sketchfab_model",
			"rotation":[
				-0.70710688829422,
				0,
				0,
				0.7071066498756409
			],
			"translation":[
				4,
				0,
				0
			]
		}
	],
	"materials":[
		{
			"doubleSided":true,
			"name":"lambert3",
			"pbrMetallicRoughness":{
				"metallicFactor":0,
				"roughnessFactor":0.6000000238418579
			}
		},
		{
			"doubleSided":true,
			"name":"blinn16",
			"pbrMetallicRoughness":{
				"baseColorFactor":[
					1,
					0,
					0,
					1
				],
				"metallicFactor":0,
				"roughnessFactor":0.9207483530044556
			}
		},
		{
			"doubleSided":true,
			"name":"blinn17",
			"pbrMetallicRoughness":{
				"baseColorFactor":[
					0,
					0,
					0,
					1
				],
				"metallicFactor":0,
				"roughnessFactor":0.9207483530044556
			}
		},
		{
			"doubleSided":true,
			"name":"blinn15",
			"pbrMetallicRoughness":{
				"baseColorFactor":[
					0,
					0,
					0,
					1
				],
				"metallicFactor":0,
				"roughnessFactor":0.9207483530044556
			}
		},
		{
			"doubleSided":true,
			"name":"blinn14",
			"pbrMetallicRoughness":{
				"metallicFactor":0,
				"roughnessFactor":0.9207483530044556
			}
		}
	],
	"meshes":[
		{
			"name":"pCube51_lambert3_0",
			"primitives":[
				{
					"attributes":{
						"POSITION":0,
						"NORMAL":1,
						"TEXCOORD_0":2
					},
					"indices":3,
					"material":0
				}
			]
		},
		{
			"name":"pCube52_blinn16_0",
			"primitives":[
				{
					"attributes":{
						"POSITION":4,
						"NORMAL":5,
						"TEXCOORD_0":6
					},
					"indices":3,
					"material":1
				}
			]
		},
		{
			"name":"pCube53_blinn17_0",
			"primitives":[
				{
					"attributes":{
						"POSITION":7,
						"NORMAL":8,
						"TEXCOORD_0":9
					},
					"indices":3,
					"material":2
				}
			]
		},
		{
			"name":"pCube54_blinn15_0",
			"primitives":[
				{
					"attributes":{
						"POSITION":10,
						"NORMAL":11,
						"TEXCOORD_0":12
					},
					"indices":3,
					"material":3
				}
			]
		},
		{
			"name":"pCube55_blinn14_0",
			"primitives":[
				{
					"attributes":{
						"POSITION":13,
						"NORMAL":14,
						"TEXCOORD_0":15
					},
					"indices":3,
					"material":4
				}
			]
		},
		{
			"name":"pCube56_blinn15_0",
			"primitives":[
				{
					"attributes":{
						"POSITION":16,
						"NORMAL":17,
						"TEXCOORD_0":18
					},
					"indices":3,
					"material":3
				}
			]
		},
		{
			"name":"pCube57_blinn14_0",
			"primitives":[
				{
					"attributes":{
						"POSITION":19,
						"NORMAL":20,
						"TEXCOORD_0":21
					},
					"indices":3,
					"material":4
				}
			]
		},
		{
			"name":"pCube58_blinn15_0",
			"primitives":[
				{
					"attributes":{
						"POSITION":22,
						"NORMAL":23,
						"TEXCOORD_0":24
					},
					"indices":3,
					"material":3
				}
			]
		},
		{
			"name":"pCube59_blinn15_0",
			"primitives":[
				{
					"attributes":{
						"POSITION":25,
						"NORMAL":26,
						"TEXCOORD_0":27
					},
					"indices":3,
					"material":3
				}
			]
		},
		{
			"name":"pCube60_blinn14_0",
			"primitives":[
				{
					"attributes":{
						"POSITION":28,
						"NORMAL":29,
						"TEXCOORD_0":30
					},
					"indices":3,
					"material":4
				}
			]
		},
		{
			"name":"pCube61_blinn15_0",
			"primitives":[
				{
					"attributes":{
						"POSITION":31,
						"NORMAL":32,
						"TEXCOORD_0":33
					},
					"indices":3,
					"material":3
				}
			]
		},
		{
			"name":"pCube62_blinn14_0",
			"primitives":[
				{
					"attributes":{
						"POSITION":34,
						"NORMAL":35,
						"TEXCOORD_0":36
					},
					"indices":3,
					"material":4
				}
			]
		},
		{
			"name":"pCube63_blinn15_0",
			"primitives":[
				{
					"attributes":{
						"POSITION":37,
						"NORMAL":38,
						"TEXCOORD_0":39
					},
					"indices":3,
					"material":3
				}
			]
		},
		{
			"name":"pCube64_blinn14_0",
			"primitives":[
				{
					"attributes":{
						"POSITION":40,
						"NORMAL":41,
						"TEXCOORD_0":42
					},
					"indices":3,
					"material":4
				}
			]
		},
		{
			"name":"pCube65_blinn15_0",
			"primitives":[
				{
					"attributes":{
						"POSITION":43,
						"NORMAL":44,
						"TEXCOORD_0":45
					},
					"indices":3,
					"material":3
				}
			]
		},
		{
			"name":"pCube66_blinn14_0",
			"primitives":[
				{
					"attributes":{
						"POSITION":46,
						"NORMAL":47,
						"TEXCOORD_0":48
					},
					"indices":3,
					"material":4
				}
			]
		},
		{
			"name":"pCube67_lambert3_0",
			"primitives":[
				{
					"attributes":{
						"POSITION":49,
						"NORMAL":50,
						"TEXCOORD_0":51
					},
					"indices":3,
					"material":0
				}
			]
		},
		{
			"name":"pCube68_lambert3_0",
			"primitives":[
				{
					"attributes":{
						"POSITION":52,
						"NORMAL":53,
						"TEXCOORD_0":54
					},
					"indices":3,
					"material":0
				}
			]
		}
	],
	"accessors":[
		{
			"bufferView":0,
			"componentType":5126,
			"count":24,
			"max":[
				0.5,
				0.5,
				0.5
			],
			"min":[
				-0.5,
				-0.5,
				-0.5
			],
			"type":"VEC3"
		},
		{
			"bufferView":1,
			"componentType":5126,
			"count":24,
			"type":"VEC3"
		},
		{
			"bufferView":2,
			"componentType":5126,
			"count":24,
			"type":"VEC2"
		},
		{
			"bufferView":3,
			"componentType":5123,
			"count":36,
			"type":"SCALAR"
		},
		{
			"bufferView":4,
			"componentType":5126,
			"count":24,
			"max":[
				0.5,
				0.5,
				0.5
			],
			"min":[
				-0.5,
				-0.5,
				-0.5
			],
			"type":"VEC3"
		},
		{
			"bufferView":5,
			"componentType":5126,
			"count":24,
			"type":"VEC3"
		},
		{
			"bufferView":6,
			"componentType":5126,
			"count":24,
			"type":"VEC2"
		},
		{
			"bufferView":7,
			"componentType":5126,
			"count":24,
			"max":[
				0.5,
				0.5,
				0.5
			],
			"min":[
				-0.5,
				-0.5,
				-0.5
			],
			"type":"VEC3"
		},
		{
			"bufferView":8,
			"componentType":5126,
			"count":24,
			"type":"VEC3"
		},
		{
			"bufferView":9,
			"componentType":5126,
			"count":24,
			"type":"VEC2"
		},
		{
			"bufferView":10,
			"componentType":5126,
			"count":24,
			"max":[
				0.5,
				0.5,
				0.5
			],
			"min":[
				-0.5,
				-0.5,
				-0.5
			],
			"type":"VEC3"
		},
		{
			"bufferView":11,
			"componentType":5126,
			"count":24,
			"type":"VEC3"
		},
		{
			"bufferView":12,
			"componentType":5126,
			"count":24,
			"type":"VEC2"
		},
		{
			"bufferView":13,
			"componentType":5126,
			"count":24,
			"max":[
				0.5,
				0.5,
				0.5
			],
			"min":[
				-0.5,
				-0.5,
				-0.5
			],
			"type":"VEC3"
		},
		{
			"bufferView":14,
			"componentType":5126,
			"count":24,
			"type":"VEC3"
		},
		{
			"bufferView":15,
			"componentType":5126,
			"count":24,
			"type":"VEC2"
		},
		{
			"bufferView":16,
			"componentType":5126,
			"count":24,
			"max":[
				0.5,
				0.5,
				0.5
			],
			"min":[
				-0.5,
				-0.5,
				-0.5
			],
			"type":"VEC3"
		},
		{
			"bufferView":17,
			"componentType":5126,
			"count":24,
			"type":"VEC3"
		},
		{
			"bufferView":18,
			"componentType":5126,
			"count":24,
			"type":"VEC2"
		},
		{
			"bufferView":19,
			"componentType":5126,
			"count":24,
			"max":[
				0.5,
				0.5,
				0.5
			],
			"min":[
				-0.5,
				-0.5,
				-0.5
			],
			"type":"VEC3"
		},
		{
			"bufferView":20,
			"componentType":5126,
			"count":24,
			"type":"VEC3"
		},
		{
			"bufferView":21,
			"componentType":5126,
			"count":24,
			"type":"VEC2"
		},
		{
			"bufferView":22,
			"componentType":5126,
			"count":24,
			"max":[
				0.5,
				0.5,
				0.5
			],
			"min":[
				-0.5,
				-0.5,
				-0.5
			],
			"type":"VEC3"
		},
		{
			"bufferView":23,
			"componentType":5126,
			"count":24,
			"type":"VEC3"
		},
		{
			"bufferView":24,
			"componentType":5126,
			"count":24,
			"type":"VEC2"
		},
		{
			"bufferView":25,
			"componentType":5126,
			"count":24,
			"max":[
				0.5,
				0.5,
				0.5
			],
			"min":[
				-0.5,
				-0.5,
				-0.5
			],
			"type":"VEC3"
		},
		{
			"bufferView":26,
			"componentType":5126,
			"count":24,
			"type":"VEC3"
		},
		{
			"bufferView":27,
			"componentType":5126,
			"count":24,
			"type":"VEC2"
		},
		{
			"bufferView":28,
			"componentType":5126,
			"count":24,
			"max":[
				0.5,
				0.5,
				0.5
			],
			"min":[
				-0.5,
				-0.5,
				-0.5
			],
			"type":"VEC3"
		},
		{
			"bufferView":29,
			"componentType":5126,
			"count":24,
			"type":"VEC3"
		},
		{
			"bufferView":30,
			"componentType":5126,
			"count":24,
			"type":"VEC2"
		},
		{
			"bufferView":31,
			"componentType":5126,
			"count":24,
			"max":[
				0.5,
				0.5,
				0.5
			],
			"min":[
				-0.5,
				-0.5,
				-0.5
			],
			"type":"VEC3"
		},
		{
			"bufferView":32,
			"componentType":5126,
			"count":24,
			"type":"VEC3"
		},
		{
			"bufferView":33,
			"componentType":5126,
			"count":24,
			"type":"VEC2"
		},
		{
			"bufferView":34,
			"componentType":5126,
			"count":24,
			"max":[
				0.5,
				0.5,
				0.5
			],
			"min":[
				-0.5,
				-0.5,
				-0.5
			],
			"type":"VEC3"
		},
		{
			"bufferView":35,
			"componentType":5126,
			"count":24,
			"type":"VEC3"
		},
		{
			"bufferView":36,
			"componentType":5126,
			"count":24,
			"type":"VEC2"
		},
		{
			"bufferView":37,
			"componentType":5126,
			"count":24,
			"max":[
				0.5,
				0.5,
				0.5
			],
			"min":[
				-0.5,
				-0.5,
				-0.5
			],
			"type":"VEC3"
		},
		{
			"bufferView":38,
			"componentType":5126,
			"count":24,
			"type":"VEC3"
		},
		{
			"bufferView":39,
			"componentType":5126,
			"count":24,
			"type":"VEC2"
		},
		{
			"bufferView":40,
			"componentType":5126,
			"count":24,
			"max":[
				0.5,
				0.5,
				0.5
			],
			"min":[
				-0.5,
				-0.5,
				-0.5
			],
			"type":"VEC3"
		},
		{
			"bufferView":41,
			"componentType":5126,
			"count":24,
			"type":"VEC3"
		},
		{
			"bufferView":42,
			"componentType":5126,
			"count":24,
			"type":"VEC2"
		},
		{
			"bufferView":43,
			"componentType":5126,
			"count":24,
			"max":[
				0.5,
				0.5,
				0.5
			],
			"min":[
				-0.5,
				-0.5,
				-0.5
			],
			"type":"VEC3"
		},
		{
			"bufferView":44,
			"componentType":5126,
			"count":24,
			"type":"VEC3"
		},
		{
			"bufferView":45,
			"componentType":5126,
			"count":24,
			"type":"VEC2"
		},
		{
			"bufferView":46,
			"componentType":5126,
			"count":24,
			"max":[
				0.5,
				0.5,
				0.5
			],
			"min":[
				-0.5,
				-0.5,
				-0.5
			],
			"type":"VEC3"
		},
		{
			"bufferView":47,
			"componentType":5126,
			"count":24,
			"type":"VEC3"
		},
		{
			"bufferView":48,
			"componentType":5126,
			"count":24,
			"type":"VEC2"
		},
		{
			"bufferView":49,
			"componentType":5126,
			"count":24,
			"max":[
				0.5,
				0.5,
				0.5
			],
			"min":[
				-0.5,
				-0.5,
				-0.5
			],
			"type":"VEC3"
		},
		{
			"bufferView":50,
			"componentType":5126,
			"count":24,
			"type":"VEC3"
		},
		{
			"bufferView":51,
			"componentType":5126,
			"count":24,
			"type":"VEC2"
		},
		{
			"bufferView":52,
			"componentType":5126,
			"count":24,
			"max":[
				0.5,
				0.5,
				0.5
			],
			"min":[
				-0.5,
				-0.5,
				-0.5
			],
			"type":"VEC3"
		},
		{
			"bufferView":53,
			"componentType":5126,
			"count":24,
			"type":"VEC3"
		},
		{
			"bufferView":54,
			"componentType":5126,
			"count":24,
			"type":"VEC2"
		}
	],
	"bufferViews":[
		{
			"buffer":0,
			"byteLength":288,
			"byteOffset":0,
			"target":34962
		},
		{
			"buffer":0,
			"byteLength":288,
			"byteOffset":288,
			"target":34962
		},
		{
			"buffer":0,
			"byteLength":192,
			"byteOffset":576,
			"target":34962
		},
		{
			"buffer":0,
			"byteLength":72,
			"byteOffset":768,
			"target":34963
		},
		{
			"buffer":0,
			"byteLength":288,
			"byteOffset":840,
			"target":34962
		},
		{
			"buffer":0,
			"byteLength":288,
			"byteOffset":1128,
			"target":34962
		},
		{
			"buffer":0,
			"byteLength":192,
			"byteOffset":1416,
			"target":34962
		},
		{
			"buffer":0,
			"byteLength":288,
			"byteOffset":1608,
			"target":34962
		},
		{
			"buffer":0,
			"byteLength":288,
			"byteOffset":1896,
			"target":34962
		},
		{
			"buffer":0,
			"byteLength":192,
			"byteOffset":2184,
			"target":34962
		},
		{
			"buffer":0,
			"byteLength":288,
			"byteOffset":2376,
			"target":34962
		},
		{
			"buffer":0,
			"byteLength":288,
			"byteOffset":2664,
			"target":34962
		},
		{
			"buffer":0,
			"byteLength":192,
			"byteOffset":2952,
			"target":34962
		},
		{
			"buffer":0,
			"byteLength":288,
			"byteOffset":3144,
			"target":34962
		},
		{
			"buffer":0,
			"byteLength":288,
			"byteOffset":3432,
			"target":34962
		},
		{
			"buffer":0,
			"byteLength":192,
			"byteOffset":3720,
			"target":34962
		},
		{
			"buffer":0,
			"byteLength":288,
			"byteOffset":3912,
			"target":34962
		},
		{
			"buffer":0,
			"byteLength":288,
			"byteOffset":4200,
			"target":34962
		},
		{
			"buffer":0,
			"byteLength":192,
			"byteOffset":4488,
			"target":34962
		},
		{
			"buffer":0,
			"byteLength":288,
			"byteOffset":4680,
			"target":34962
		},
		{
			"buffer":0,
			"byteLength":288,
			"byteOffset":4968,
			"target":34962
		},
		{
			"buffer":0,
			"byteLength":192,
			"byteOffset":5256,
			"target":34962
		},
		{
			"buffer":0,
			"byteLength":288,
			"byteOffset":5448,
			"target":34962
		},
		{
			"buffer":0,
			"byteLength":288,
			"byteOffset":5736,
			"target":34962
		},
		{
			"buffer":0,
			"byteLength":192,
			"byteOffset":6024,
			"target":34962
		},
		{
			"buffer":0,
			"byteLength":288,
			"byteOffset":6216,
			"target":34962
		},
		{
			"buffer":0,
			"byteLength":288,
			"byteOffset":6504,
			"target":34962
		},
		{
			"buffer":0,
			"byteLength":192,
			"byteOffset":6792,
			"target":34962
		},
		{
			"buffer":0,
			"byteLength":288,
			"byteOffset":6984,
			"target":34962
		},
		{
			"buffer":0,
			"byteLength":288,
			"byteOffset":7272,
			"target":34962
		},
		{
			"buffer":0,
			"byteLength":192,
			"byteOffset":7560,
			"target":34962
		},
		{
			"buffer":0,
			"byteLength":288,
			"byteOffset":7752,
			"target":34962
		},
		{
			"buffer":0,
			"byteLength":288,
			"byteOffset":8040,
			"target":34962
		},
		{
			"buffer":0,
			"byteLength":192,
			"byteOffset":8328,
			"target":34962
		},
		{
			"buffer":0,
			"byteLength":288,
			"byteOffset":8520,
			"target":34962
		},
		{
			"buffer":0,
			"byteLength":288,
			"byteOffset":8808,
			"target":34962
		},
		{
			"buffer":0,
			"byteLength":192,
			"byteOffset":9096,
			"target":34962
		},
		{
			"buffer":0,
			"byteLength":288,
			"byteOffset":9288,
			"target":34962
		},
		{
			"buffer":0,
			"byteLength":288,
			"byteOffset":9576,
			"target":34962
		},
		{
			"buffer":0,
			"byteLength":192,
			"byteOffset":9864,
			"target":34962
		},
		{
			"buffer":0,
			"byteLength":288,
			"byteOffset":10056,
			"target":34962
		},
		{
			"buffer":0,
			"byteLength":288,
			"byteOffset":10344,
			"target":34962
		},
		{
			"buffer":0,
			"byteLength":192,
			"byteOffset":10632,
			"target":34962
		},
		{
			"buffer":0,
			"byteLength":288,
			"byteOffset":10824,
			"target":34962
		},
		{
			"buffer":0,
			"byteLength":288,
			"byteOffset":11112,
			"target":34962
		},
		{
			"buffer":0,
			"byteLength":192,
			"byteOffset":11400,
			"target":34962
		},
		{
			"buffer":0,
			"byteLength":288,
			"byteOffset":11592,
			"target":34962
		},
		{
			"buffer":0,
			"byteLength":288,
			"byteOffset":11880,
			"target":34962
		},
		{
			"buffer":0,
			"byteLength":192,
			"byteOffset":12168,
			"target":34962
		},
		{
			"buffer":0,
			"byteLength":288,
			"byteOffset":12360,
			"target":34962
		},
		{
			"buffer":0,
			"byteLength":288,
			"byteOffset":12648,
			"target":34962
		},
		{
			"buffer":0,
			"byteLength":192,
			"byteOffset":12936,
			"target":34962
		},
		{
			"buffer":0,
			"byteLength":288,
			"byteOffset":13128,
			"target":34962
		},
		{
			"buffer":0,
			"byteLength":288,
			"byteOffset":13416,
			"target":34962
		},
		{
			"buffer":0,
			"byteLength":192,
			"byteOffset":13704,
			"target":34962
		}
	],
	"buffers":[
		{
			"byteLength":13896,
			"uri":"truck_CrossyRoad.bin"
		}
	]
}
